# xmcd CD database file
#
# Track frame offsets:
#	150
#	15598
#	28979
#	41797
#	56216
#	68574
#	81524
#	95890
#	109996
#	135097
#	149355
#	162200
#	175215
#	189066
#	201672
#	215830
#	231321
#	244456
#	259311
#	273704
#	286798
#
# Disc length: 4018 seconds
#
# Revision: 0
# Processed by: cddbd v1.5.2PL0 Copyright (c) Steve Scherf et al.
# Submitted via: CDex 1.51
#
DISCID=4d0fb015
DTITLE=Sampler - Classic Blues Songs From The 1920's Vol. 10
DYEAR=2012
DGENRE=Blues
TTITLE0=Blind Willie Johnson - Dark Was The Night-Cold Was The Ground
TTITLE1=Blind Blake - Diddie Wa Diddie
TTITLE2=Memphis Minnie - What`s The Matter With The Mill ?
TTITLE3=Lil McClintock - Sow Good Seeds
TTITLE4=Blind Lemon Jefferson - Peach orchard Mama
TTITLE5=Blind Blake - Police Dog Blues
TTITLE6=Buddy Boy Hawkins - Snatch It Back Blues
TTITLE7=Ardell Bragg - Pig Meat Blues
TTITLE8=Harum Scarum - Alabama Scratch
TTITLE9=Charley Patton - Frankie And Albert
TTITLE10=Clifford Gibson - Ice And Snow Blues
TTITLE11=Reverend Emmet Dickenson - The Devil And God Meet At Church
TTITLE12=Blind Willie Davis - I Believe I`ll Go Back Home
TTITLE13=Blind Willie Davis - Trust In God And Do The Right
TTITLE14=Hi Henry Brown - Titanic Blues
TTITLE15=Hi Henry Brown - Preacher Blues
TTITLE16=Laura Rucker with Blind Blake - Fancy Tricks
TTITLE17=Freddie Spruell with Washboard Sam - Ocean Blues
TTITLE18=Freddie Spruell with Washboard Sam - Y.M.V.Blues
TTITLE19=Charley Patton - Some These Days I`ll Be Gone - Take 1
TTITLE20=Charley Patton - Some These Days I`ll Be Gone - Take 2
EXTD=YEAR: 2012
EXTT0=
EXTT1=
EXTT2=
EXTT3=
EXTT4=
EXTT5=
EXTT6=
EXTT7=
EXTT8=
EXTT9=
EXTT10=
EXTT11=
EXTT12=
EXTT13=
EXTT14=
EXTT15=
EXTT16=
EXTT17=
EXTT18=
EXTT19=
EXTT20=
PLAYORDER=
